<?xml version="1.0" encoding="UTF-8" standalone="no"?>
<!DOCTYPE svg PUBLIC "-//W3C//DTD SVG 1.1//EN" "http://www.w3.org/Graphics/SVG/1.1/DTD/svg11.dtd">
<svg width="100%" height="100%" viewBox="0 0 323 321" version="1.1" xmlns="http://www.w3.org/2000/svg" xmlns:xlink="http://www.w3.org/1999/xlink" xml:space="preserve" xmlns:serif="http://www.serif.com/" style="fill-rule:evenodd;clip-rule:evenodd;stroke-linejoin:round;stroke-miterlimit:2;">
    <g id="Layer1" opacity="0.45">
        <g>
            <g transform="matrix(1.60639,6.93889e-18,0,1.60048,-140.88,76.3246)">
                <ellipse cx="218.275" cy="54.63" rx="8.216" ry="7.998" style="fill:rgb(254,98,83);"/>
            </g>
            <g transform="matrix(0.0511084,-0.0832466,-4.6889,-2.8787,756.86,420.184)">
                <rect x="283.317" y="117.726" width="8.44" height="13.034"/>
            </g>
            <g transform="matrix(-0.0422734,-0.0963896,-3.28674,1.44146,654.914,-105.596)">
                <rect x="283.317" y="117.726" width="8.44" height="13.034"/>
            </g>
            <g transform="matrix(0.0739387,-0.0638367,-3.59563,-4.16463,687.329,620.328)">
                <rect x="283.317" y="117.726" width="8.44" height="13.034"/>
            </g>
            <g transform="matrix(0.0188212,-0.111287,-5.42503,-0.917496,916.168,243.156)">
                <rect x="283.317" y="117.726" width="8.44" height="13.034"/>
            </g>
            <g transform="matrix(0.132458,0.000357034,0.0105177,-3.90201,238.296,569.389)">
                <rect x="283.317" y="117.726" width="8.44" height="13.034"/>
            </g>
            <g transform="matrix(0.132458,0.000357034,0.0105177,-3.90201,238.296,569.389)">
                <rect x="283.317" y="117.726" width="8.44" height="13.034"/>
            </g>
            <g transform="matrix(0.0860877,0.100668,2.96554,-2.53602,-96.6147,374.908)">
                <rect x="283.317" y="117.726" width="8.44" height="13.034"/>
            </g>
            <g transform="matrix(0.103939,-0.106775,-1.81965,-1.77132,462.177,298.979)">
                <rect x="283.317" y="117.726" width="8.44" height="13.034"/>
            </g>
            <g transform="matrix(-0.0880996,-0.0421963,-2.37672,4.96225,350.382,-462.504)">
                <rect x="283.317" y="117.726" width="8.44" height="13.034"/>
            </g>
            <g transform="matrix(-0.0973125,0.00850478,0.479035,5.48117,21.5019,-535.226)">
                <rect x="283.317" y="117.726" width="8.44" height="13.034"/>
            </g>
            <g transform="matrix(-0.0865751,-0.0452418,-2.54826,4.87638,408.723,-518.755)">
                <rect x="283.317" y="117.726" width="8.44" height="13.034"/>
            </g>
            <g transform="matrix(-0.0619801,-0.0755019,-4.25268,3.49105,627.96,-336.413)">
                <rect x="283.317" y="117.726" width="8.44" height="13.034"/>
            </g>
            <g transform="matrix(-0.0411744,-0.0885817,-4.98941,2.31917,770.268,-225.005)">
                <rect x="283.317" y="117.726" width="8.44" height="13.034"/>
            </g>
            <g transform="matrix(0.0213041,-0.095332,-5.36962,-1.19996,875.693,207.558)">
                <rect x="283.317" y="117.726" width="8.44" height="13.034"/>
            </g>
            <g transform="matrix(-0.0228783,-0.0949665,-5.34903,1.28863,791.105,-100.969)">
                <rect x="283.317" y="117.726" width="8.44" height="13.034"/>
            </g>
            <g transform="matrix(-0.0981913,-0.00344778,-0.132875,3.78422,154.705,-393.338)">
                <rect x="283.317" y="117.726" width="8.44" height="13.034"/>
            </g>
            <g transform="matrix(0.0874112,0.135541,-2.72449,1.75704,341.758,-143.181)">
                <rect x="283.317" y="117.726" width="8.44" height="13.034"/>
            </g>
            <g transform="matrix(-0.0612612,0.0907755,2.89845,1.95606,-308.932,-82.5337)">
                <rect x="283.317" y="117.726" width="8.44" height="13.034"/>
            </g>
            <g transform="matrix(0.103838,-0.159752,2.37806,1.54573,-28.2213,-32.416)">
                <rect x="283.317" y="117.726" width="8.44" height="13.034"/>
            </g>
            <g transform="matrix(0.276265,0.694349,-1.83982,0.732023,366.992,14.4546)">
                <rect x="108.475" y="107.931" width="5.636" height="33.461" style="fill:rgb(132,161,253);"/>
            </g>
            <g transform="matrix(0.775719,0.572917,-0.429647,0.581735,185.463,25.0602)">
                <rect x="108.475" y="107.931" width="5.636" height="33.461" style="fill:rgb(132,161,253);"/>
            </g>
            <g transform="matrix(-0.00429194,0.830143,-0.469843,-0.00242915,264.913,79.0078)">
                <rect x="108.475" y="107.931" width="5.636" height="33.461" style="fill:rgb(132,161,253);"/>
            </g>
            <g transform="matrix(1.75022,0,0,1.75085,-251.789,103.093)">
                <ellipse cx="218.275" cy="54.63" rx="8.216" ry="7.998" style="fill:rgb(132,161,253);"/>
            </g>
            <g transform="matrix(0.68874,0,0,0.667899,-31.6128,163.388)">
                <ellipse cx="218.275" cy="54.63" rx="8.216" ry="7.998" style="fill:rgb(254,98,83);"/>
            </g>
            <g transform="matrix(-0.0618469,-0.0756109,-4.25882,3.48356,685.863,-306.001)">
                <rect x="283.317" y="117.726" width="8.44" height="13.034"/>
            </g>
            <g transform="matrix(0.113037,-0.0831454,3.30898,4.49858,-375.723,-313.57)">
                <rect x="283.317" y="117.726" width="8.44" height="13.034"/>
            </g>
            <g transform="matrix(0.104171,0.00253095,-0.134261,5.52603,41.9852,-468.881)">
                <rect x="283.317" y="117.726" width="8.44" height="13.034"/>
            </g>
            <g transform="matrix(0.135164,-0.000317107,0.0107017,4.56151,237.595,-348.569)">
                <rect x="283.317" y="117.726" width="8.44" height="13.034"/>
            </g>
            <g transform="matrix(0.0736262,0.113351,-3.82539,2.48474,592.182,-93.8785)">
                <rect x="283.317" y="117.726" width="8.44" height="13.034"/>
            </g>
            <g transform="matrix(-0.077483,0.110751,-3.73762,-2.6149,673.611,540.602)">
                <rect x="283.317" y="117.726" width="8.44" height="13.034"/>
            </g>
            <g transform="matrix(0.120154,0.0028004,-0.0982848,4.217,141.324,-321.032)">
                <rect x="283.317" y="117.726" width="8.44" height="13.034"/>
            </g>
            <g transform="matrix(0.00479218,0.149088,-5.49923,0.176763,850.23,200.977)">
                <rect x="283.317" y="117.726" width="8.44" height="13.034"/>
            </g>
            <g transform="matrix(-0.0196812,0.0816925,-5.33809,-1.28604,757.753,398.555)">
                <rect x="283.317" y="117.726" width="8.44" height="13.034"/>
            </g>
            <g transform="matrix(-0.100452,0.116177,-4.16201,-3.59866,684.721,699.455)">
                <rect x="283.317" y="117.726" width="8.44" height="13.034"/>
            </g>
            <g transform="matrix(0.060481,0.0838773,-4.46286,3.21801,725.68,-137.554)">
                <rect x="283.317" y="117.726" width="8.44" height="13.034"/>
            </g>
            <g transform="matrix(0.0614144,-0.0722258,3.47507,2.95489,-265.2,-246.761)">
                <rect x="283.317" y="117.726" width="8.44" height="13.034"/>
            </g>
            <g transform="matrix(0.126265,-0.0482339,1.6278,4.2612,-14.9963,-403.361)">
                <rect x="283.317" y="117.726" width="8.44" height="13.034"/>
            </g>
            <g transform="matrix(0.53206,0,0,0.516539,196.33,94.3954)">
                <ellipse cx="218.275" cy="54.63" rx="8.216" ry="7.998" style="fill:rgb(255,196,190);"/>
            </g>
            <g transform="matrix(0.191155,-0.0103226,0.202335,3.74687,136.165,-390.184)">
                <rect x="283.317" y="117.726" width="8.44" height="13.034"/>
            </g>
            <g transform="matrix(0.123253,-0.0554802,1.87235,4.15955,26.481,-359.999)">
                <rect x="283.317" y="117.726" width="8.44" height="13.034"/>
            </g>
            <g transform="matrix(0.134201,-0.016111,0.543714,4.52901,109.77,-322.757)">
                <rect x="283.317" y="117.726" width="8.44" height="13.034"/>
            </g>
            <g transform="matrix(0.100715,0.090144,-3.04218,3.39892,597.275,-216.355)">
                <rect x="283.317" y="117.726" width="8.44" height="13.034"/>
            </g>
            <g transform="matrix(0.044082,0.127774,-4.31211,1.48768,773.047,35.7807)">
                <rect x="283.317" y="117.726" width="8.44" height="13.034"/>
            </g>
            <g transform="matrix(0.0816315,0.10773,-3.63566,2.7549,716.164,-183.22)">
                <rect x="283.317" y="117.726" width="8.44" height="13.034"/>
            </g>
            <g transform="matrix(1.12214,0,0,1.1026,-158.432,-19.1813)">
                <ellipse cx="218.275" cy="54.63" rx="8.216" ry="7.998" style="fill:rgb(132,161,253);"/>
            </g>
            <g transform="matrix(-0.564553,0.705884,-1.38348,-1.10648,480.846,233.661)">
                <rect x="108.475" y="107.931" width="5.636" height="33.461" style="fill:rgb(132,161,253);"/>
            </g>
            <g transform="matrix(0.402558,0.41499,-1.87697,1.82074,434.686,-136.604)">
                <rect x="108.475" y="107.931" width="5.636" height="33.461" style="fill:rgb(132,161,253);"/>
            </g>
            <g transform="matrix(1.20128,0,0,1.3138,-21.1779,64.5944)">
                <ellipse cx="218.275" cy="54.63" rx="8.216" ry="7.998" style="fill:rgb(132,161,253);"/>
            </g>
            <g transform="matrix(1.33338,0,0,1.19494,-55.6833,79.6605)">
                <ellipse cx="218.275" cy="54.63" rx="8.216" ry="7.998" style="fill:rgb(132,161,253);"/>
            </g>
            <g transform="matrix(0.565492,0,0,0.784829,101.662,111.637)">
                <ellipse cx="218.275" cy="54.63" rx="8.216" ry="7.998" style="fill:rgb(132,161,253);"/>
            </g>
            <g transform="matrix(-0.26519,0.755279,-1.67149,-0.586884,425.38,178.811)">
                <rect x="108.475" y="107.931" width="5.636" height="33.461" style="fill:rgb(132,161,253);"/>
            </g>
            <g transform="matrix(1.12214,0,0,1.1026,-229.445,113.567)">
                <ellipse cx="218.275" cy="54.63" rx="8.216" ry="7.998" style="fill:rgb(132,161,253);"/>
            </g>
            <g transform="matrix(-0.493058,0.0135437,-0.0220468,-0.80261,270.321,278.576)">
                <rect x="108.475" y="107.931" width="5.636" height="33.461" style="fill:rgb(132,161,253);"/>
            </g>
            <g transform="matrix(0.690669,0.0733201,-0.105565,0.994412,46.3835,-7.41047)">
                <rect x="108.475" y="107.931" width="5.636" height="33.461" style="fill:rgb(132,161,253);"/>
            </g>
            <g transform="matrix(0.457506,0.658083,-1.30384,0.906444,199.763,-8.92393)">
                <rect x="108.475" y="107.931" width="5.636" height="33.461" style="fill:rgb(132,161,253);"/>
            </g>
            <g transform="matrix(0.693445,-0.401894,0.796262,1.3739,-61.1686,45.9251)">
                <rect x="108.475" y="107.931" width="5.636" height="33.461" style="fill:rgb(132,161,253);"/>
            </g>
            <g transform="matrix(0.800247,0.0446106,-0.0883857,1.58551,45.854,28.7483)">
                <rect x="108.475" y="107.931" width="5.636" height="33.461" style="fill:rgb(132,161,253);"/>
            </g>
            <g transform="matrix(0.472044,-0.509484,0.733546,0.67964,-72.4505,97.2766)">
                <rect x="108.475" y="107.931" width="5.636" height="33.461" style="fill:rgb(132,161,253);"/>
            </g>
            <g transform="matrix(1.12214,0,0,1.1026,-29.8333,-6.85184)">
                <ellipse cx="218.275" cy="54.63" rx="8.216" ry="7.998" style="fill:rgb(57,51,51);"/>
            </g>
            <g transform="matrix(1.12214,0,0,1.1026,-29.8333,-6.85184)">
                <ellipse cx="218.275" cy="54.63" rx="8.216" ry="7.998" style="fill:rgb(57,51,51);"/>
            </g>
            <g transform="matrix(1.12214,0,0,1.1026,11.7506,-21.1235)">
                <ellipse cx="218.275" cy="54.63" rx="8.216" ry="7.998" style="fill:rgb(132,161,253);"/>
            </g>
            <g transform="matrix(2.1044,0,0,2.1136,-180.884,-11.9696)">
                <ellipse cx="218.275" cy="54.63" rx="8.216" ry="7.998" style="fill:rgb(132,161,253);"/>
            </g>
            <g transform="matrix(1.12214,0,0,1.1026,-158.554,-19.212)">
                <ellipse cx="218.275" cy="54.63" rx="8.216" ry="7.998" style="fill:rgb(132,161,253);"/>
            </g>
            <g transform="matrix(1.15635,0,0,1.1026,-87.6993,121.414)">
                <ellipse cx="218.275" cy="54.63" rx="8.216" ry="7.998" style="fill:rgb(132,161,253);"/>
            </g>
            <g transform="matrix(2.2052,0,0,2.28502,-269.708,77.1952)">
                <ellipse cx="218.275" cy="54.63" rx="8.216" ry="7.998" style="fill:rgb(132,161,253);"/>
            </g>
            <g transform="matrix(0.86864,0,0,0.881765,-79.2976,2.67275)">
                <ellipse cx="218.275" cy="54.63" rx="8.216" ry="7.998" style="fill:rgb(254,98,83);"/>
            </g>
            <g transform="matrix(2.51564,0,0,2.54666,-382.121,-114.385)">
                <ellipse cx="218.275" cy="54.63" rx="8.216" ry="7.998" style="fill:rgb(254,98,83);"/>
            </g>
            <g transform="matrix(1.57342,0,0,1.56601,-127.175,5.94818)">
                <ellipse cx="218.275" cy="54.63" rx="8.216" ry="7.998" style="fill:rgb(254,98,83);"/>
            </g>
            <g transform="matrix(1.30477,0,0,1.27436,-118.395,15.5705)">
                <ellipse cx="218.275" cy="54.63" rx="8.216" ry="7.998" style="fill:rgb(254,98,83);"/>
            </g>
            <g transform="matrix(0.792701,0,0,0.820077,59.8318,91.3569)">
                <ellipse cx="218.275" cy="54.63" rx="8.216" ry="7.998" style="fill:rgb(254,98,83);"/>
            </g>
            <g transform="matrix(0.543496,0,0,0.516129,195.948,45.7202)">
                <ellipse cx="218.275" cy="54.63" rx="8.216" ry="7.998" style="fill:rgb(254,98,83);"/>
            </g>
            <g transform="matrix(2.32779,0,0,2.2627,-450.652,74.5932)">
                <ellipse cx="218.275" cy="54.63" rx="8.216" ry="7.998" style="fill:rgb(254,98,83);"/>
            </g>
            <g transform="matrix(0.543496,0,0,0.516129,-107.236,95.8603)">
                <ellipse cx="218.275" cy="54.63" rx="8.216" ry="7.998" style="fill:rgb(254,98,83);"/>
            </g>
            <g transform="matrix(1.9802,0,0,2.02742,-382.71,-7.30362)">
                <ellipse cx="218.275" cy="54.63" rx="8.216" ry="7.998" style="fill:rgb(254,98,83);"/>
            </g>
            <g transform="matrix(2.04695,0,0,1.97794,-352.923,37.3102)">
                <ellipse cx="218.275" cy="54.63" rx="8.216" ry="7.998" style="fill:rgb(254,98,83);"/>
            </g>
            <g transform="matrix(1.78545,0,0,1.82161,-281.222,-5.18494)">
                <ellipse cx="218.275" cy="54.63" rx="8.216" ry="7.998" style="fill:rgb(254,98,83);"/>
            </g>
            <g transform="matrix(1.39561,0,0,1.50168,-140.331,220.855)">
                <ellipse cx="218.275" cy="54.63" rx="8.216" ry="7.998" style="fill:rgb(254,98,83);"/>
            </g>
            <g transform="matrix(1.20513,0,0,1.22436,46.1275,105.993)">
                <ellipse cx="218.275" cy="54.63" rx="8.216" ry="7.998" style="fill:rgb(254,98,83);"/>
            </g>
            <g transform="matrix(2.26245,0,0,2.20322,-218.044,76.7503)">
                <ellipse cx="218.275" cy="54.63" rx="8.216" ry="7.998" style="fill:rgb(254,98,83);"/>
            </g>
            <g transform="matrix(2.53083,0,0,2.7435,-333.225,117.447)">
                <ellipse cx="218.275" cy="54.63" rx="8.216" ry="7.998" style="fill:rgb(254,98,83);"/>
            </g>
            <g transform="matrix(2.44358,0,0,2.41322,-415.454,139.911)">
                <ellipse cx="218.275" cy="54.63" rx="8.216" ry="7.998" style="fill:rgb(254,98,83);"/>
            </g>
        </g>
    </g>
</svg>
