<?xml version="1.0" encoding="UTF-8" standalone="no"?>
<!DOCTYPE svg PUBLIC "-//W3C//DTD SVG 1.1//EN" "http://www.w3.org/Graphics/SVG/1.1/DTD/svg11.dtd">
<svg width="100%" height="100%" viewBox="0 0 323 321" version="1.1" xmlns="http://www.w3.org/2000/svg" xmlns:xlink="http://www.w3.org/1999/xlink" xml:space="preserve" xmlns:serif="http://www.serif.com/" style="fill-rule:evenodd;clip-rule:evenodd;stroke-linejoin:round;stroke-miterlimit:2;">
    <g id="Layer1" opacity="0.36">
        <g>
            <g transform="matrix(1.60639,6.93889e-18,0,1.60048,-140.88,76.3246)">
                <ellipse cx="218.275" cy="54.63" rx="8.216" ry="7.998" style="fill:url(#_Linear1);"/>
            </g>
            <g transform="matrix(0.0511084,-0.0832466,-4.6889,-2.8787,756.86,420.184)">
                <rect x="283.317" y="117.726" width="8.44" height="13.034" style="fill:url(#_Linear2);"/>
            </g>
            <g transform="matrix(-0.0422734,-0.0963896,-3.28674,1.44146,654.914,-105.596)">
                <rect x="283.317" y="117.726" width="8.44" height="13.034" style="fill:url(#_Linear3);"/>
            </g>
            <g transform="matrix(0.0739387,-0.0638367,-3.59563,-4.16463,687.329,620.328)">
                <rect x="283.317" y="117.726" width="8.44" height="13.034" style="fill:url(#_Linear4);"/>
            </g>
            <g transform="matrix(0.0188212,-0.111287,-5.42503,-0.917496,916.168,243.156)">
                <rect x="283.317" y="117.726" width="8.44" height="13.034" style="fill:url(#_Linear5);"/>
            </g>
            <g transform="matrix(0.132458,0.000357034,0.0105177,-3.90201,238.296,569.389)">
                <rect x="283.317" y="117.726" width="8.44" height="13.034" style="fill:url(#_Linear6);"/>
            </g>
            <g transform="matrix(0.132458,0.000357034,0.0105177,-3.90201,238.296,569.389)">
                <rect x="283.317" y="117.726" width="8.44" height="13.034" style="fill:url(#_Linear7);"/>
            </g>
            <g transform="matrix(0.0860877,0.100668,2.96554,-2.53602,-96.6147,374.908)">
                <rect x="283.317" y="117.726" width="8.44" height="13.034" style="fill:url(#_Linear8);"/>
            </g>
            <g transform="matrix(0.103939,-0.106775,-1.81965,-1.77132,462.177,298.979)">
                <rect x="283.317" y="117.726" width="8.44" height="13.034" style="fill:url(#_Linear9);"/>
            </g>
            <g transform="matrix(-0.0880996,-0.0421963,-2.37672,4.96225,350.382,-462.504)">
                <rect x="283.317" y="117.726" width="8.44" height="13.034" style="fill:url(#_Linear10);"/>
            </g>
            <g transform="matrix(-0.0973125,0.00850478,0.479035,5.48117,21.5019,-535.226)">
                <rect x="283.317" y="117.726" width="8.44" height="13.034" style="fill:url(#_Linear11);"/>
            </g>
            <g transform="matrix(-0.0865751,-0.0452418,-2.54826,4.87638,408.723,-518.755)">
                <rect x="283.317" y="117.726" width="8.44" height="13.034" style="fill:url(#_Linear12);"/>
            </g>
            <g transform="matrix(-0.0619801,-0.0755019,-4.25268,3.49105,627.96,-336.413)">
                <rect x="283.317" y="117.726" width="8.44" height="13.034" style="fill:url(#_Linear13);"/>
            </g>
            <g transform="matrix(-0.0411744,-0.0885817,-4.98941,2.31917,770.268,-225.005)">
                <rect x="283.317" y="117.726" width="8.44" height="13.034" style="fill:url(#_Linear14);"/>
            </g>
            <g transform="matrix(0.0213041,-0.095332,-5.36962,-1.19996,875.693,207.558)">
                <rect x="283.317" y="117.726" width="8.44" height="13.034" style="fill:url(#_Linear15);"/>
            </g>
            <g transform="matrix(-0.0228783,-0.0949665,-5.34903,1.28863,791.105,-100.969)">
                <rect x="283.317" y="117.726" width="8.44" height="13.034" style="fill:url(#_Linear16);"/>
            </g>
            <g transform="matrix(-0.0981913,-0.00344778,-0.132875,3.78422,154.705,-393.338)">
                <rect x="283.317" y="117.726" width="8.44" height="13.034" style="fill:url(#_Linear17);"/>
            </g>
            <g transform="matrix(0.0874112,0.135541,-2.72449,1.75704,341.758,-143.181)">
                <rect x="283.317" y="117.726" width="8.44" height="13.034" style="fill:url(#_Linear18);"/>
            </g>
            <g transform="matrix(-0.0612612,0.0907755,2.89845,1.95606,-308.932,-82.5337)">
                <rect x="283.317" y="117.726" width="8.44" height="13.034" style="fill:url(#_Linear19);"/>
            </g>
            <g transform="matrix(0.103838,-0.159752,2.37806,1.54573,-28.2213,-32.416)">
                <rect x="283.317" y="117.726" width="8.44" height="13.034" style="fill:url(#_Linear20);"/>
            </g>
            <g transform="matrix(0.276265,0.694349,-1.83982,0.732023,366.992,14.4546)">
                <rect x="108.475" y="107.931" width="5.636" height="33.461" style="fill:url(#_Linear21);"/>
            </g>
            <g transform="matrix(0.775719,0.572917,-0.429647,0.581735,185.463,25.0602)">
                <rect x="108.475" y="107.931" width="5.636" height="33.461" style="fill:url(#_Linear22);"/>
            </g>
            <g transform="matrix(-0.00429194,0.830143,-0.469843,-0.00242915,264.913,79.0078)">
                <rect x="108.475" y="107.931" width="5.636" height="33.461" style="fill:url(#_Linear23);"/>
            </g>
            <g transform="matrix(1.75022,0,0,1.75085,-251.789,103.093)">
                <ellipse cx="218.275" cy="54.63" rx="8.216" ry="7.998" style="fill:url(#_Linear24);"/>
            </g>
            <g transform="matrix(0.68874,0,0,0.667899,-31.6128,163.388)">
                <ellipse cx="218.275" cy="54.63" rx="8.216" ry="7.998" style="fill:url(#_Linear25);"/>
            </g>
            <g transform="matrix(-0.0618469,-0.0756109,-4.25882,3.48356,685.863,-306.001)">
                <rect x="283.317" y="117.726" width="8.44" height="13.034" style="fill:url(#_Linear26);"/>
            </g>
            <g transform="matrix(0.113037,-0.0831454,3.30898,4.49858,-375.723,-313.57)">
                <rect x="283.317" y="117.726" width="8.44" height="13.034" style="fill:url(#_Linear27);"/>
            </g>
            <g transform="matrix(0.104171,0.00253095,-0.134261,5.52603,41.9852,-468.881)">
                <rect x="283.317" y="117.726" width="8.44" height="13.034" style="fill:url(#_Linear28);"/>
            </g>
            <g transform="matrix(0.135164,-0.000317107,0.0107017,4.56151,237.595,-348.569)">
                <rect x="283.317" y="117.726" width="8.44" height="13.034" style="fill:url(#_Linear29);"/>
            </g>
            <g transform="matrix(0.0736262,0.113351,-3.82539,2.48474,592.182,-93.8785)">
                <rect x="283.317" y="117.726" width="8.44" height="13.034" style="fill:url(#_Linear30);"/>
            </g>
            <g transform="matrix(-0.077483,0.110751,-3.73762,-2.6149,673.611,540.602)">
                <rect x="283.317" y="117.726" width="8.44" height="13.034" style="fill:url(#_Linear31);"/>
            </g>
            <g transform="matrix(0.120154,0.0028004,-0.0982848,4.217,141.324,-321.032)">
                <rect x="283.317" y="117.726" width="8.44" height="13.034" style="fill:url(#_Linear32);"/>
            </g>
            <g transform="matrix(0.00479218,0.149088,-5.49923,0.176763,850.23,200.977)">
                <rect x="283.317" y="117.726" width="8.44" height="13.034" style="fill:url(#_Linear33);"/>
            </g>
            <g transform="matrix(-0.0196812,0.0816925,-5.33809,-1.28604,757.753,398.555)">
                <rect x="283.317" y="117.726" width="8.44" height="13.034" style="fill:url(#_Linear34);"/>
            </g>
            <g transform="matrix(-0.100452,0.116177,-4.16201,-3.59866,684.721,699.455)">
                <rect x="283.317" y="117.726" width="8.44" height="13.034" style="fill:url(#_Linear35);"/>
            </g>
            <g transform="matrix(0.060481,0.0838773,-4.46286,3.21801,725.68,-137.554)">
                <rect x="283.317" y="117.726" width="8.44" height="13.034" style="fill:url(#_Linear36);"/>
            </g>
            <g transform="matrix(0.0614144,-0.0722258,3.47507,2.95489,-265.2,-246.761)">
                <rect x="283.317" y="117.726" width="8.44" height="13.034" style="fill:url(#_Linear37);"/>
            </g>
            <g transform="matrix(0.126265,-0.0482339,1.6278,4.2612,-14.9963,-403.361)">
                <rect x="283.317" y="117.726" width="8.44" height="13.034" style="fill:url(#_Linear38);"/>
            </g>
            <g transform="matrix(0.53206,0,0,0.516539,196.33,94.3954)">
                <ellipse cx="218.275" cy="54.63" rx="8.216" ry="7.998" style="fill:url(#_Linear39);"/>
            </g>
            <g transform="matrix(0.191155,-0.0103226,0.202335,3.74687,136.165,-390.184)">
                <rect x="283.317" y="117.726" width="8.44" height="13.034" style="fill:url(#_Linear40);"/>
            </g>
            <g transform="matrix(0.123253,-0.0554802,1.87235,4.15955,26.481,-359.999)">
                <rect x="283.317" y="117.726" width="8.44" height="13.034" style="fill:url(#_Linear41);"/>
            </g>
            <g transform="matrix(0.134201,-0.016111,0.543714,4.52901,109.77,-322.757)">
                <rect x="283.317" y="117.726" width="8.44" height="13.034" style="fill:url(#_Linear42);"/>
            </g>
            <g transform="matrix(0.100715,0.090144,-3.04218,3.39892,597.275,-216.355)">
                <rect x="283.317" y="117.726" width="8.44" height="13.034" style="fill:url(#_Linear43);"/>
            </g>
            <g transform="matrix(0.044082,0.127774,-4.31211,1.48768,773.047,35.7807)">
                <rect x="283.317" y="117.726" width="8.44" height="13.034" style="fill:url(#_Linear44);"/>
            </g>
            <g transform="matrix(0.0816315,0.10773,-3.63566,2.7549,716.164,-183.22)">
                <rect x="283.317" y="117.726" width="8.44" height="13.034" style="fill:url(#_Linear45);"/>
            </g>
            <g transform="matrix(1.12214,0,0,1.1026,-158.432,-19.1813)">
                <ellipse cx="218.275" cy="54.63" rx="8.216" ry="7.998" style="fill:url(#_Linear46);"/>
            </g>
            <g transform="matrix(-0.564553,0.705884,-1.38348,-1.10648,480.846,233.661)">
                <rect x="108.475" y="107.931" width="5.636" height="33.461" style="fill:url(#_Linear47);"/>
            </g>
            <g transform="matrix(0.402558,0.41499,-1.87697,1.82074,434.686,-136.604)">
                <rect x="108.475" y="107.931" width="5.636" height="33.461" style="fill:url(#_Linear48);"/>
            </g>
            <g transform="matrix(1.20128,0,0,1.3138,-21.1779,64.5944)">
                <ellipse cx="218.275" cy="54.63" rx="8.216" ry="7.998" style="fill:url(#_Linear49);"/>
            </g>
            <g transform="matrix(1.33338,0,0,1.19494,-55.6833,79.6605)">
                <ellipse cx="218.275" cy="54.63" rx="8.216" ry="7.998" style="fill:url(#_Linear50);"/>
            </g>
            <g transform="matrix(0.565492,0,0,0.784829,101.662,111.637)">
                <ellipse cx="218.275" cy="54.63" rx="8.216" ry="7.998" style="fill:url(#_Linear51);"/>
            </g>
            <g transform="matrix(-0.26519,0.755279,-1.67149,-0.586884,425.38,178.811)">
                <rect x="108.475" y="107.931" width="5.636" height="33.461" style="fill:url(#_Linear52);"/>
            </g>
            <g transform="matrix(1.12214,0,0,1.1026,-229.445,113.567)">
                <ellipse cx="218.275" cy="54.63" rx="8.216" ry="7.998" style="fill:url(#_Linear53);"/>
            </g>
            <g transform="matrix(-0.493058,0.0135437,-0.0220468,-0.80261,270.321,278.576)">
                <rect x="108.475" y="107.931" width="5.636" height="33.461" style="fill:url(#_Linear54);"/>
            </g>
            <g transform="matrix(0.690669,0.0733201,-0.105565,0.994412,46.3835,-7.41047)">
                <rect x="108.475" y="107.931" width="5.636" height="33.461" style="fill:url(#_Linear55);"/>
            </g>
            <g transform="matrix(0.457506,0.658083,-1.30384,0.906444,199.763,-8.92393)">
                <rect x="108.475" y="107.931" width="5.636" height="33.461" style="fill:url(#_Linear56);"/>
            </g>
            <g transform="matrix(0.693445,-0.401894,0.796262,1.3739,-61.1686,45.9251)">
                <rect x="108.475" y="107.931" width="5.636" height="33.461" style="fill:url(#_Linear57);"/>
            </g>
            <g transform="matrix(0.800247,0.0446106,-0.0883857,1.58551,45.854,28.7483)">
                <rect x="108.475" y="107.931" width="5.636" height="33.461" style="fill:url(#_Linear58);"/>
            </g>
            <g transform="matrix(0.472044,-0.509484,0.733546,0.67964,-72.4505,97.2766)">
                <rect x="108.475" y="107.931" width="5.636" height="33.461" style="fill:url(#_Linear59);"/>
            </g>
            <g transform="matrix(1.12214,0,0,1.1026,-29.8333,-6.85184)">
                <ellipse cx="218.275" cy="54.63" rx="8.216" ry="7.998" style="fill:url(#_Linear60);"/>
            </g>
            <g transform="matrix(1.12214,0,0,1.1026,-29.8333,-6.85184)">
                <ellipse cx="218.275" cy="54.63" rx="8.216" ry="7.998" style="fill:url(#_Linear61);"/>
            </g>
            <g transform="matrix(1.12214,0,0,1.1026,11.7506,-21.1235)">
                <ellipse cx="218.275" cy="54.63" rx="8.216" ry="7.998" style="fill:url(#_Linear62);"/>
            </g>
            <g transform="matrix(2.1044,0,0,2.1136,-180.884,-11.9696)">
                <ellipse cx="218.275" cy="54.63" rx="8.216" ry="7.998" style="fill:url(#_Linear63);"/>
            </g>
            <g transform="matrix(1.12214,0,0,1.1026,-158.554,-19.212)">
                <ellipse cx="218.275" cy="54.63" rx="8.216" ry="7.998" style="fill:url(#_Linear64);"/>
            </g>
            <g transform="matrix(1.15635,0,0,1.1026,-87.6993,121.414)">
                <ellipse cx="218.275" cy="54.63" rx="8.216" ry="7.998" style="fill:url(#_Linear65);"/>
            </g>
            <g transform="matrix(2.2052,0,0,2.28502,-269.708,77.1952)">
                <ellipse cx="218.275" cy="54.63" rx="8.216" ry="7.998" style="fill:url(#_Linear66);"/>
            </g>
            <g transform="matrix(0.86864,0,0,0.881765,-79.2976,2.67275)">
                <ellipse cx="218.275" cy="54.63" rx="8.216" ry="7.998" style="fill:url(#_Linear67);"/>
            </g>
            <g transform="matrix(2.51564,0,0,2.54666,-382.121,-114.385)">
                <ellipse cx="218.275" cy="54.63" rx="8.216" ry="7.998" style="fill:url(#_Linear68);"/>
            </g>
            <g transform="matrix(1.57342,0,0,1.56601,-127.175,5.94818)">
                <ellipse cx="218.275" cy="54.63" rx="8.216" ry="7.998" style="fill:url(#_Linear69);"/>
            </g>
            <g transform="matrix(1.30477,0,0,1.27436,-118.395,15.5705)">
                <ellipse cx="218.275" cy="54.63" rx="8.216" ry="7.998" style="fill:url(#_Linear70);"/>
            </g>
            <g transform="matrix(0.792701,0,0,0.820077,59.8318,91.3569)">
                <ellipse cx="218.275" cy="54.63" rx="8.216" ry="7.998" style="fill:url(#_Linear71);"/>
            </g>
            <g transform="matrix(0.543496,0,0,0.516129,195.948,45.7202)">
                <ellipse cx="218.275" cy="54.63" rx="8.216" ry="7.998" style="fill:url(#_Linear72);"/>
            </g>
            <g transform="matrix(2.32779,0,0,2.2627,-450.652,74.5932)">
                <ellipse cx="218.275" cy="54.63" rx="8.216" ry="7.998" style="fill:url(#_Linear73);"/>
            </g>
            <g transform="matrix(0.543496,0,0,0.516129,-107.236,95.8603)">
                <ellipse cx="218.275" cy="54.63" rx="8.216" ry="7.998" style="fill:url(#_Linear74);"/>
            </g>
            <g transform="matrix(1.9802,0,0,2.02742,-382.71,-7.30362)">
                <ellipse cx="218.275" cy="54.63" rx="8.216" ry="7.998" style="fill:url(#_Linear75);"/>
            </g>
            <g transform="matrix(2.04695,0,0,1.97794,-352.923,37.3102)">
                <ellipse cx="218.275" cy="54.63" rx="8.216" ry="7.998" style="fill:url(#_Linear76);"/>
            </g>
            <g transform="matrix(1.78545,0,0,1.82161,-281.222,-5.18494)">
                <ellipse cx="218.275" cy="54.63" rx="8.216" ry="7.998" style="fill:url(#_Linear77);"/>
            </g>
            <g transform="matrix(1.39561,0,0,1.50168,-140.331,220.855)">
                <ellipse cx="218.275" cy="54.63" rx="8.216" ry="7.998" style="fill:url(#_Linear78);"/>
            </g>
            <g transform="matrix(1.20513,0,0,1.22436,46.1275,105.993)">
                <ellipse cx="218.275" cy="54.63" rx="8.216" ry="7.998" style="fill:url(#_Linear79);"/>
            </g>
            <g transform="matrix(2.26245,0,0,2.20322,-218.044,76.7503)">
                <ellipse cx="218.275" cy="54.63" rx="8.216" ry="7.998" style="fill:url(#_Linear80);"/>
            </g>
            <g transform="matrix(2.53083,0,0,2.7435,-333.225,117.447)">
                <ellipse cx="218.275" cy="54.63" rx="8.216" ry="7.998" style="fill:url(#_Linear81);"/>
            </g>
            <g transform="matrix(2.44358,0,0,2.41322,-415.454,139.911)">
                <ellipse cx="218.275" cy="54.63" rx="8.216" ry="7.998" style="fill:url(#_Linear82);"/>
            </g>
        </g>
    </g>
    <defs>
        <linearGradient id="_Linear1" x1="0" y1="0" x2="1" y2="0" gradientUnits="userSpaceOnUse" gradientTransform="matrix(-189.11,-190.658,189.957,-189.809,281.087,145.483)"><stop offset="0" style="stop-color:black;stop-opacity:1"/><stop offset="1" style="stop-color:white;stop-opacity:1"/></linearGradient>
        <linearGradient id="_Linear2" x1="0" y1="0" x2="1" y2="0" gradientUnits="userSpaceOnUse" gradientTransform="matrix(1035.03,76.0697,4284.66,-18.3758,-1421.4,79.6688)"><stop offset="0" style="stop-color:black;stop-opacity:1"/><stop offset="1" style="stop-color:white;stop-opacity:1"/></linearGradient>
        <linearGradient id="_Linear3" x1="0" y1="0" x2="1" y2="0" gradientUnits="userSpaceOnUse" gradientTransform="matrix(3814.3,43.3686,1478.8,-111.861,-2295.18,134.262)"><stop offset="0" style="stop-color:black;stop-opacity:1"/><stop offset="1" style="stop-color:white;stop-opacity:1"/></linearGradient>
        <linearGradient id="_Linear4" x1="0" y1="0" x2="1" y2="0" gradientUnits="userSpaceOnUse" gradientTransform="matrix(-312.515,78.0608,4396.81,5.54838,-837.065,87.5457)"><stop offset="0" style="stop-color:black;stop-opacity:1"/><stop offset="1" style="stop-color:white;stop-opacity:1"/></linearGradient>
        <linearGradient id="_Linear5" x1="0" y1="0" x2="1" y2="0" gradientUnits="userSpaceOnUse" gradientTransform="matrix(2216.89,63.688,3104.67,-45.4764,-1471.28,106.51)"><stop offset="0" style="stop-color:black;stop-opacity:1"/><stop offset="1" style="stop-color:white;stop-opacity:1"/></linearGradient>
        <linearGradient id="_Linear6" x1="0" y1="0" x2="1" y2="0" gradientUnits="userSpaceOnUse" gradientTransform="matrix(-2299.63,77.9914,2297.51,78.0636,540.983,66.7385)"><stop offset="0" style="stop-color:black;stop-opacity:1"/><stop offset="1" style="stop-color:white;stop-opacity:1"/></linearGradient>
        <linearGradient id="_Linear7" x1="0" y1="0" x2="1" y2="0" gradientUnits="userSpaceOnUse" gradientTransform="matrix(-2299.63,77.9914,2297.51,78.0636,540.983,66.7385)"><stop offset="0" style="stop-color:black;stop-opacity:1"/><stop offset="1" style="stop-color:white;stop-opacity:1"/></linearGradient>
        <linearGradient id="_Linear8" x1="0" y1="0" x2="1" y2="0" gradientUnits="userSpaceOnUse" gradientTransform="matrix(-3241.38,-8.34318,-245.781,110.032,1621.13,90.2738)"><stop offset="0" style="stop-color:black;stop-opacity:1"/><stop offset="1" style="stop-color:white;stop-opacity:1"/></linearGradient>
        <linearGradient id="_Linear9" x1="0" y1="0" x2="1" y2="0" gradientUnits="userSpaceOnUse" gradientTransform="matrix(45.3383,169.537,2889.23,-2.66044,-758.276,39.9566)"><stop offset="0" style="stop-color:black;stop-opacity:1"/><stop offset="1" style="stop-color:white;stop-opacity:1"/></linearGradient>
        <linearGradient id="_Linear10" x1="0" y1="0" x2="1" y2="0" gradientUnits="userSpaceOnUse" gradientTransform="matrix(4154.16,-26.1684,-1473.95,-73.7528,-3045.64,129.61)"><stop offset="0" style="stop-color:black;stop-opacity:1"/><stop offset="1" style="stop-color:white;stop-opacity:1"/></linearGradient>
        <linearGradient id="_Linear11" x1="0" y1="0" x2="1" y2="0" gradientUnits="userSpaceOnUse" gradientTransform="matrix(2826.11,-60.0565,-3382.71,-50.1746,-2196.26,157.461)"><stop offset="0" style="stop-color:black;stop-opacity:1"/><stop offset="1" style="stop-color:white;stop-opacity:1"/></linearGradient>
        <linearGradient id="_Linear12" x1="0" y1="0" x2="1" y2="0" gradientUnits="userSpaceOnUse" gradientTransform="matrix(4203.02,-23.5815,-1328.24,-74.6203,-3035.66,141.618)"><stop offset="0" style="stop-color:black;stop-opacity:1"/><stop offset="1" style="stop-color:white;stop-opacity:1"/></linearGradient>
        <linearGradient id="_Linear13" x1="0" y1="0" x2="1" y2="0" gradientUnits="userSpaceOnUse" gradientTransform="matrix(4387.68,7.48601,421.658,-77.8988,-3047.15,119.023)"><stop offset="0" style="stop-color:black;stop-opacity:1"/><stop offset="1" style="stop-color:white;stop-opacity:1"/></linearGradient>
        <linearGradient id="_Linear14" x1="0" y1="0" x2="1" y2="0" gradientUnits="userSpaceOnUse" gradientTransform="matrix(4143.59,26.6915,1503.41,-73.5651,-2975.64,116.674)"><stop offset="0" style="stop-color:black;stop-opacity:1"/><stop offset="1" style="stop-color:white;stop-opacity:1"/></linearGradient>
        <linearGradient id="_Linear15" x1="0" y1="0" x2="1" y2="0" gradientUnits="userSpaceOnUse" gradientTransform="matrix(2370.37,65.9792,3716.31,-42.0834,-2276.69,96.1958)"><stop offset="0" style="stop-color:black;stop-opacity:1"/><stop offset="1" style="stop-color:white;stop-opacity:1"/></linearGradient>
        <linearGradient id="_Linear16" x1="0" y1="0" x2="1" y2="0" gradientUnits="userSpaceOnUse" gradientTransform="matrix(3765.29,40.688,2291.77,-66.8488,-2929.92,102.351)"><stop offset="0" style="stop-color:black;stop-opacity:1"/><stop offset="1" style="stop-color:white;stop-opacity:1"/></linearGradient>
        <linearGradient id="_Linear17" x1="0" y1="0" x2="1" y2="0" gradientUnits="userSpaceOnUse" gradientTransform="matrix(3198.98,-77.7215,-2995.33,-83.0057,-1837.18,183.967)"><stop offset="0" style="stop-color:black;stop-opacity:1"/><stop offset="1" style="stop-color:white;stop-opacity:1"/></linearGradient>
        <linearGradient id="_Linear18" x1="0" y1="0" x2="1" y2="0" gradientUnits="userSpaceOnUse" gradientTransform="matrix(-2610.86,27.7361,-557.519,-129.888,2252.53,83.6851)"><stop offset="0" style="stop-color:black;stop-opacity:1"/><stop offset="1" style="stop-color:white;stop-opacity:1"/></linearGradient>
        <linearGradient id="_Linear19" x1="0" y1="0" x2="1" y2="0" gradientUnits="userSpaceOnUse" gradientTransform="matrix(-757.888,-120.828,-3858.02,23.736,-200.091,209.536)"><stop offset="0" style="stop-color:black;stop-opacity:1"/><stop offset="1" style="stop-color:white;stop-opacity:1"/></linearGradient>
        <linearGradient id="_Linear20" x1="0" y1="0" x2="1" y2="0" gradientUnits="userSpaceOnUse" gradientTransform="matrix(473.871,-148.436,2209.62,31.8336,-533.85,165.812)"><stop offset="0" style="stop-color:black;stop-opacity:1"/><stop offset="1" style="stop-color:white;stop-opacity:1"/></linearGradient>
        <linearGradient id="_Linear21" x1="0" y1="0" x2="1" y2="0" gradientUnits="userSpaceOnUse" gradientTransform="matrix(-529.691,85.5789,-226.758,-199.905,338.566,81.4594)"><stop offset="0" style="stop-color:black;stop-opacity:1"/><stop offset="1" style="stop-color:white;stop-opacity:1"/></linearGradient>
        <linearGradient id="_Linear22" x1="0" y1="0" x2="1" y2="0" gradientUnits="userSpaceOnUse" gradientTransform="matrix(-441.382,-89.8503,67.3817,-588.565,279.453,213.163)"><stop offset="0" style="stop-color:black;stop-opacity:1"/><stop offset="1" style="stop-color:white;stop-opacity:1"/></linearGradient>
        <linearGradient id="_Linear23" x1="0" y1="0" x2="1" y2="0" gradientUnits="userSpaceOnUse" gradientTransform="matrix(-365.679,649.907,-367.833,-646.1,276.961,-99.8869)"><stop offset="0" style="stop-color:black;stop-opacity:1"/><stop offset="1" style="stop-color:white;stop-opacity:1"/></linearGradient>
        <linearGradient id="_Linear24" x1="0" y1="0" x2="1" y2="0" gradientUnits="userSpaceOnUse" gradientTransform="matrix(-173.569,-174.284,174.346,-173.507,321.356,117.7)"><stop offset="0" style="stop-color:black;stop-opacity:1"/><stop offset="1" style="stop-color:white;stop-opacity:1"/></linearGradient>
        <linearGradient id="_Linear25" x1="0" y1="0" x2="1" y2="0" gradientUnits="userSpaceOnUse" gradientTransform="matrix(-441.073,-456.872,443.047,-454.836,496.948,218.266)"><stop offset="0" style="stop-color:black;stop-opacity:1"/><stop offset="1" style="stop-color:white;stop-opacity:1"/></linearGradient>
        <linearGradient id="_Linear26" x1="0" y1="0" x2="1" y2="0" gradientUnits="userSpaceOnUse" gradientTransform="matrix(4386.94,7.62325,429.381,-77.8855,-2442.66,123.574)"><stop offset="0" style="stop-color:black;stop-opacity:1"/><stop offset="1" style="stop-color:white;stop-opacity:1"/></linearGradient>
        <linearGradient id="_Linear27" x1="0" y1="0" x2="1" y2="0" gradientUnits="userSpaceOnUse" gradientTransform="matrix(-455.421,-76.2486,3034.5,-11.4436,1310.69,162.655)"><stop offset="0" style="stop-color:black;stop-opacity:1"/><stop offset="1" style="stop-color:white;stop-opacity:1"/></linearGradient>
        <linearGradient id="_Linear28" x1="0" y1="0" x2="1" y2="0" gradientUnits="userSpaceOnUse" gradientTransform="matrix(-2985.62,-53.852,2856.73,-56.2818,2758.97,139.533)"><stop offset="0" style="stop-color:black;stop-opacity:1"/><stop offset="1" style="stop-color:white;stop-opacity:1"/></linearGradient>
        <linearGradient id="_Linear29" x1="0" y1="0" x2="1" y2="0" gradientUnits="userSpaceOnUse" gradientTransform="matrix(-2242.22,-67.0514,2262.85,-66.4401,529.112,144.23)"><stop offset="0" style="stop-color:black;stop-opacity:1"/><stop offset="1" style="stop-color:white;stop-opacity:1"/></linearGradient>
        <linearGradient id="_Linear30" x1="0" y1="0" x2="1" y2="0" gradientUnits="userSpaceOnUse" gradientTransform="matrix(-3117.53,19.4106,-655.077,-92.3763,1366.13,99.8876)"><stop offset="0" style="stop-color:black;stop-opacity:1"/><stop offset="1" style="stop-color:white;stop-opacity:1"/></linearGradient>
        <linearGradient id="_Linear31" x1="0" y1="0" x2="1" y2="0" gradientUnits="userSpaceOnUse" gradientTransform="matrix(-561.421,92.9162,-3135.73,-16.6358,136.371,94.2817)"><stop offset="0" style="stop-color:black;stop-opacity:1"/><stop offset="1" style="stop-color:white;stop-opacity:1"/></linearGradient>
        <linearGradient id="_Linear32" x1="0" y1="0" x2="1" y2="0" gradientUnits="userSpaceOnUse" gradientTransform="matrix(-2586.08,-70.6432,2479.34,-73.6846,1530.7,148.426)"><stop offset="0" style="stop-color:black;stop-opacity:1"/><stop offset="1" style="stop-color:white;stop-opacity:1"/></linearGradient>
        <linearGradient id="_Linear33" x1="0" y1="0" x2="1" y2="0" gradientUnits="userSpaceOnUse" gradientTransform="matrix(-2110.06,53.4026,-1969.8,-57.2051,608.725,98.6487)"><stop offset="0" style="stop-color:black;stop-opacity:1"/><stop offset="1" style="stop-color:white;stop-opacity:1"/></linearGradient>
        <linearGradient id="_Linear34" x1="0" y1="0" x2="1" y2="0" gradientUnits="userSpaceOnUse" gradientTransform="matrix(-2683.63,66.8033,-4365.17,-41.0695,212.03,82.9743)"><stop offset="0" style="stop-color:black;stop-opacity:1"/><stop offset="1" style="stop-color:white;stop-opacity:1"/></linearGradient>
        <linearGradient id="_Linear35" x1="0" y1="0" x2="1" y2="0" gradientUnits="userSpaceOnUse" gradientTransform="matrix(-209.221,78.0395,-2795.74,-5.84006,-329.274,97.8234)"><stop offset="0" style="stop-color:black;stop-opacity:1"/><stop offset="1" style="stop-color:white;stop-opacity:1"/></linearGradient>
        <linearGradient id="_Linear36" x1="0" y1="0" x2="1" y2="0" gradientUnits="userSpaceOnUse" gradientTransform="matrix(-4111.7,12.3474,-656.971,-77.2775,1156.68,108.671)"><stop offset="0" style="stop-color:black;stop-opacity:1"/><stop offset="1" style="stop-color:white;stop-opacity:1"/></linearGradient>
        <linearGradient id="_Linear37" x1="0" y1="0" x2="1" y2="0" gradientUnits="userSpaceOnUse" gradientTransform="matrix(376.328,-94.0691,4526.04,7.82159,-532.538,175.122)"><stop offset="0" style="stop-color:black;stop-opacity:1"/><stop offset="1" style="stop-color:white;stop-opacity:1"/></linearGradient>
        <linearGradient id="_Linear38" x1="0" y1="0" x2="1" y2="0" gradientUnits="userSpaceOnUse" gradientTransform="matrix(-1293.92,-86.2563,2910.98,-38.3405,369.492,171.396)"><stop offset="0" style="stop-color:black;stop-opacity:1"/><stop offset="1" style="stop-color:white;stop-opacity:1"/></linearGradient>
        <linearGradient id="_Linear39" x1="0" y1="0" x2="1" y2="0" gradientUnits="userSpaceOnUse" gradientTransform="matrix(-570.96,-590.748,573.515,-588.116,214.873,415.792)"><stop offset="0" style="stop-color:black;stop-opacity:1"/><stop offset="1" style="stop-color:white;stop-opacity:1"/></linearGradient>
        <linearGradient id="_Linear40" x1="0" y1="0" x2="1" y2="0" gradientUnits="userSpaceOnUse" gradientTransform="matrix(-1498.63,-85.5686,1677.25,-76.4561,713.176,188.614)"><stop offset="0" style="stop-color:black;stop-opacity:1"/><stop offset="1" style="stop-color:white;stop-opacity:1"/></linearGradient>
        <linearGradient id="_Linear41" x1="0" y1="0" x2="1" y2="0" gradientUnits="userSpaceOnUse" gradientTransform="matrix(-1122.8,-88.336,2981.17,-33.2702,-114.956,159.342)"><stop offset="0" style="stop-color:black;stop-opacity:1"/><stop offset="1" style="stop-color:white;stop-opacity:1"/></linearGradient>
        <linearGradient id="_Linear42" x1="0" y1="0" x2="1" y2="0" gradientUnits="userSpaceOnUse" gradientTransform="matrix(-1962.4,-74.3564,2509.38,-58.1487,918.367,142.795)"><stop offset="0" style="stop-color:black;stop-opacity:1"/><stop offset="1" style="stop-color:white;stop-opacity:1"/></linearGradient>
        <linearGradient id="_Linear43" x1="0" y1="0" x2="1" y2="0" gradientUnits="userSpaceOnUse" gradientTransform="matrix(-3180.32,-5.43057,183.266,-94.2373,1012.95,127.75)"><stop offset="0" style="stop-color:black;stop-opacity:1"/><stop offset="1" style="stop-color:white;stop-opacity:1"/></linearGradient>
        <linearGradient id="_Linear44" x1="0" y1="0" x2="1" y2="0" gradientUnits="userSpaceOnUse" gradientTransform="matrix(-2867.14,41.1389,-1388.35,-84.9574,796.336,115.372)"><stop offset="0" style="stop-color:black;stop-opacity:1"/><stop offset="1" style="stop-color:white;stop-opacity:1"/></linearGradient>
        <linearGradient id="_Linear45" x1="0" y1="0" x2="1" y2="0" gradientUnits="userSpaceOnUse" gradientTransform="matrix(-3156.72,12.679,-427.886,-93.5383,1091.58,136.046)"><stop offset="0" style="stop-color:black;stop-opacity:1"/><stop offset="1" style="stop-color:white;stop-opacity:1"/></linearGradient>
        <linearGradient id="_Linear46" x1="0" y1="0" x2="1" y2="0" gradientUnits="userSpaceOnUse" gradientTransform="matrix(-270.719,-276.75,271.931,-275.517,418.029,297.795)"><stop offset="0" style="stop-color:black;stop-opacity:1"/><stop offset="1" style="stop-color:white;stop-opacity:1"/></linearGradient>
        <linearGradient id="_Linear47" x1="0" y1="0" x2="1" y2="0" gradientUnits="userSpaceOnUse" gradientTransform="matrix(-53.7267,241.504,-473.33,-27.4125,182.842,48.4043)"><stop offset="0" style="stop-color:black;stop-opacity:1"/><stop offset="1" style="stop-color:white;stop-opacity:1"/></linearGradient>
        <linearGradient id="_Linear48" x1="0" y1="0" x2="1" y2="0" gradientUnits="userSpaceOnUse" gradientTransform="matrix(-744.677,2.13594,-9.66092,-164.645,404.05,152.738)"><stop offset="0" style="stop-color:black;stop-opacity:1"/><stop offset="1" style="stop-color:white;stop-opacity:1"/></linearGradient>
        <linearGradient id="_Linear49" x1="0" y1="0" x2="1" y2="0" gradientUnits="userSpaceOnUse" gradientTransform="matrix(-252.884,-232.261,254.016,-231.226,276.233,186.157)"><stop offset="0" style="stop-color:black;stop-opacity:1"/><stop offset="1" style="stop-color:white;stop-opacity:1"/></linearGradient>
        <linearGradient id="_Linear50" x1="0" y1="0" x2="1" y2="0" gradientUnits="userSpaceOnUse" gradientTransform="matrix(-227.831,-255.364,228.85,-254.226,274.744,192.066)"><stop offset="0" style="stop-color:black;stop-opacity:1"/><stop offset="1" style="stop-color:white;stop-opacity:1"/></linearGradient>
        <linearGradient id="_Linear51" x1="0" y1="0" x2="1" y2="0" gradientUnits="userSpaceOnUse" gradientTransform="matrix(-537.204,-388.804,539.609,-387.071,369.578,251.687)"><stop offset="0" style="stop-color:black;stop-opacity:1"/><stop offset="1" style="stop-color:white;stop-opacity:1"/></linearGradient>
        <linearGradient id="_Linear52" x1="0" y1="0" x2="1" y2="0" gradientUnits="userSpaceOnUse" gradientTransform="matrix(-233.95,218.862,-484.358,-105.713,201.132,36.7256)"><stop offset="0" style="stop-color:black;stop-opacity:1"/><stop offset="1" style="stop-color:white;stop-opacity:1"/></linearGradient>
        <linearGradient id="_Linear53" x1="0" y1="0" x2="1" y2="0" gradientUnits="userSpaceOnUse" gradientTransform="matrix(-270.719,-276.75,271.931,-275.517,481.313,177.4)"><stop offset="0" style="stop-color:black;stop-opacity:1"/><stop offset="1" style="stop-color:white;stop-opacity:1"/></linearGradient>
        <linearGradient id="_Linear54" x1="0" y1="0" x2="1" y2="0" gradientUnits="userSpaceOnUse" gradientTransform="matrix(598.672,390.293,-635.326,367.775,-80.04,-39.4663)"><stop offset="0" style="stop-color:black;stop-opacity:1"/><stop offset="1" style="stop-color:white;stop-opacity:1"/></linearGradient>
        <linearGradient id="_Linear55" x1="0" y1="0" x2="1" y2="0" gradientUnits="userSpaceOnUse" gradientTransform="matrix(-481.319,-271.371,390.714,-334.3,426.485,286.912)"><stop offset="0" style="stop-color:black;stop-opacity:1"/><stop offset="1" style="stop-color:white;stop-opacity:1"/></linearGradient>
        <linearGradient id="_Linear56" x1="0" y1="0" x2="1" y2="0" gradientUnits="userSpaceOnUse" gradientTransform="matrix(-528.957,47.3861,-93.8844,-266.978,404.843,57.005)"><stop offset="0" style="stop-color:black;stop-opacity:1"/><stop offset="1" style="stop-color:white;stop-opacity:1"/></linearGradient>
        <linearGradient id="_Linear57" x1="0" y1="0" x2="1" y2="0" gradientUnits="userSpaceOnUse" gradientTransform="matrix(-137.024,-262.183,519.455,-69.1598,236.686,260.838)"><stop offset="0" style="stop-color:black;stop-opacity:1"/><stop offset="1" style="stop-color:white;stop-opacity:1"/></linearGradient>
        <linearGradient id="_Linear58" x1="0" y1="0" x2="1" y2="0" gradientUnits="userSpaceOnUse" gradientTransform="matrix(-399.628,-181.214,359.035,-201.703,349.348,167.035)"><stop offset="0" style="stop-color:black;stop-opacity:1"/><stop offset="1" style="stop-color:white;stop-opacity:1"/></linearGradient>
        <linearGradient id="_Linear59" x1="0" y1="0" x2="1" y2="0" gradientUnits="userSpaceOnUse" gradientTransform="matrix(25.0137,-430.228,619.435,17.3731,151.094,425.036)"><stop offset="0" style="stop-color:black;stop-opacity:1"/><stop offset="1" style="stop-color:white;stop-opacity:1"/></linearGradient>
        <linearGradient id="_Linear60" x1="0" y1="0" x2="1" y2="0" gradientUnits="userSpaceOnUse" gradientTransform="matrix(-270.719,-276.75,271.931,-275.517,303.428,286.613)"><stop offset="0" style="stop-color:black;stop-opacity:1"/><stop offset="1" style="stop-color:white;stop-opacity:1"/></linearGradient>
        <linearGradient id="_Linear61" x1="0" y1="0" x2="1" y2="0" gradientUnits="userSpaceOnUse" gradientTransform="matrix(-270.719,-276.75,271.931,-275.517,303.428,286.613)"><stop offset="0" style="stop-color:black;stop-opacity:1"/><stop offset="1" style="stop-color:white;stop-opacity:1"/></linearGradient>
        <linearGradient id="_Linear62" x1="0" y1="0" x2="1" y2="0" gradientUnits="userSpaceOnUse" gradientTransform="matrix(-270.719,-276.75,271.931,-275.517,266.37,299.557)"><stop offset="0" style="stop-color:black;stop-opacity:1"/><stop offset="1" style="stop-color:white;stop-opacity:1"/></linearGradient>
        <linearGradient id="_Linear63" x1="0" y1="0" x2="1" y2="0" gradientUnits="userSpaceOnUse" gradientTransform="matrix(-144.357,-144.372,145.003,-143.729,233.577,151.939)"><stop offset="0" style="stop-color:black;stop-opacity:1"/><stop offset="1" style="stop-color:white;stop-opacity:1"/></linearGradient>
        <linearGradient id="_Linear64" x1="0" y1="0" x2="1" y2="0" gradientUnits="userSpaceOnUse" gradientTransform="matrix(-270.719,-276.75,271.931,-275.517,418.138,297.823)"><stop offset="0" style="stop-color:black;stop-opacity:1"/><stop offset="1" style="stop-color:white;stop-opacity:1"/></linearGradient>
        <linearGradient id="_Linear65" x1="0" y1="0" x2="1" y2="0" gradientUnits="userSpaceOnUse" gradientTransform="matrix(-262.71,-276.75,263.886,-275.517,344.493,170.283)"><stop offset="0" style="stop-color:black;stop-opacity:1"/><stop offset="1" style="stop-color:white;stop-opacity:1"/></linearGradient>
        <linearGradient id="_Linear66" x1="0" y1="0" x2="1" y2="0" gradientUnits="userSpaceOnUse" gradientTransform="matrix(-137.758,-133.541,138.375,-132.946,263.18,101.519)"><stop offset="0" style="stop-color:black;stop-opacity:1"/><stop offset="1" style="stop-color:white;stop-opacity:1"/></linearGradient>
        <linearGradient id="_Linear67" x1="0" y1="0" x2="1" y2="0" gradientUnits="userSpaceOnUse" gradientTransform="matrix(-349.725,-346.061,351.29,-344.519,448.924,347.593)"><stop offset="0" style="stop-color:black;stop-opacity:1"/><stop offset="1" style="stop-color:white;stop-opacity:1"/></linearGradient>
        <linearGradient id="_Linear68" x1="0" y1="0" x2="1" y2="0" gradientUnits="userSpaceOnUse" gradientTransform="matrix(-120.758,-119.821,121.299,-119.288,275.388,166.317)"><stop offset="0" style="stop-color:black;stop-opacity:1"/><stop offset="1" style="stop-color:white;stop-opacity:1"/></linearGradient>
        <linearGradient id="_Linear69" x1="0" y1="0" x2="1" y2="0" gradientUnits="userSpaceOnUse" gradientTransform="matrix(-193.073,-194.855,193.937,-193.986,278.267,193.626)"><stop offset="0" style="stop-color:black;stop-opacity:1"/><stop offset="1" style="stop-color:white;stop-opacity:1"/></linearGradient>
        <linearGradient id="_Linear70" x1="0" y1="0" x2="1" y2="0" gradientUnits="userSpaceOnUse" gradientTransform="matrix(-232.826,-239.449,233.868,-238.382,328.832,230.388)"><stop offset="0" style="stop-color:black;stop-opacity:1"/><stop offset="1" style="stop-color:white;stop-opacity:1"/></linearGradient>
        <linearGradient id="_Linear71" x1="0" y1="0" x2="1" y2="0" gradientUnits="userSpaceOnUse" gradientTransform="matrix(-383.227,-372.092,384.943,-370.434,316.416,265.598)"><stop offset="0" style="stop-color:black;stop-opacity:1"/><stop offset="1" style="stop-color:white;stop-opacity:1"/></linearGradient>
        <linearGradient id="_Linear72" x1="0" y1="0" x2="1" y2="0" gradientUnits="userSpaceOnUse" gradientTransform="matrix(-558.946,-591.217,561.447,-588.583,211.055,510.43)"><stop offset="0" style="stop-color:black;stop-opacity:1"/><stop offset="1" style="stop-color:white;stop-opacity:1"/></linearGradient>
        <linearGradient id="_Linear73" x1="0" y1="0" x2="1" y2="0" gradientUnits="userSpaceOnUse" gradientTransform="matrix(-130.503,-134.859,131.088,-134.258,327.052,103.67)"><stop offset="0" style="stop-color:black;stop-opacity:1"/><stop offset="1" style="stop-color:white;stop-opacity:1"/></linearGradient>
        <linearGradient id="_Linear74" x1="0" y1="0" x2="1" y2="0" gradientUnits="userSpaceOnUse" gradientTransform="matrix(-558.946,-591.217,561.447,-588.583,768.895,413.284)"><stop offset="0" style="stop-color:black;stop-opacity:1"/><stop offset="1" style="stop-color:white;stop-opacity:1"/></linearGradient>
        <linearGradient id="_Linear75" x1="0" y1="0" x2="1" y2="0" gradientUnits="userSpaceOnUse" gradientTransform="matrix(-153.411,-150.509,154.098,-149.838,350.149,156.096)"><stop offset="0" style="stop-color:black;stop-opacity:1"/><stop offset="1" style="stop-color:white;stop-opacity:1"/></linearGradient>
        <linearGradient id="_Linear76" x1="0" y1="0" x2="1" y2="0" gradientUnits="userSpaceOnUse" gradientTransform="matrix(-148.408,-154.274,149.073,-153.586,324.179,137.445)"><stop offset="0" style="stop-color:black;stop-opacity:1"/><stop offset="1" style="stop-color:white;stop-opacity:1"/></linearGradient>
        <linearGradient id="_Linear77" x1="0" y1="0" x2="1" y2="0" gradientUnits="userSpaceOnUse" gradientTransform="matrix(-170.145,-167.514,170.906,-166.767,331.5,172.569)"><stop offset="0" style="stop-color:black;stop-opacity:1"/><stop offset="1" style="stop-color:white;stop-opacity:1"/></linearGradient>
        <linearGradient id="_Linear78" x1="0" y1="0" x2="1" y2="0" gradientUnits="userSpaceOnUse" gradientTransform="matrix(-217.672,-203.202,218.646,-202.297,323.146,58.8094)"><stop offset="0" style="stop-color:black;stop-opacity:1"/><stop offset="1" style="stop-color:white;stop-opacity:1"/></linearGradient>
        <linearGradient id="_Linear79" x1="0" y1="0" x2="1" y2="0" gradientUnits="userSpaceOnUse" gradientTransform="matrix(-252.076,-249.228,253.205,-248.117,219.502,165.944)"><stop offset="0" style="stop-color:black;stop-opacity:1"/><stop offset="1" style="stop-color:white;stop-opacity:1"/></linearGradient>
        <linearGradient id="_Linear80" x1="0" y1="0" x2="1" y2="0" gradientUnits="userSpaceOnUse" gradientTransform="matrix(-134.272,-138.499,134.873,-137.882,233.684,105.49)"><stop offset="0" style="stop-color:black;stop-opacity:1"/><stop offset="1" style="stop-color:white;stop-opacity:1"/></linearGradient>
        <linearGradient id="_Linear81" x1="0" y1="0" x2="1" y2="0" gradientUnits="userSpaceOnUse" gradientTransform="matrix(-120.034,-111.225,120.571,-110.729,254.415,69.8819)"><stop offset="0" style="stop-color:black;stop-opacity:1"/><stop offset="1" style="stop-color:white;stop-opacity:1"/></linearGradient>
        <linearGradient id="_Linear82" x1="0" y1="0" x2="1" y2="0" gradientUnits="userSpaceOnUse" gradientTransform="matrix(-124.32,-126.447,124.876,-125.884,297.15,70.1374)"><stop offset="0" style="stop-color:black;stop-opacity:1"/><stop offset="1" style="stop-color:white;stop-opacity:1"/></linearGradient>
    </defs>
</svg>
