<?xml version="1.0" encoding="UTF-8" standalone="no"?>
<!DOCTYPE svg PUBLIC "-//W3C//DTD SVG 1.1//EN" "http://www.w3.org/Graphics/SVG/1.1/DTD/svg11.dtd">
<svg width="100%" height="100%" viewBox="0 0 117 123" version="1.1" xmlns="http://www.w3.org/2000/svg" xmlns:xlink="http://www.w3.org/1999/xlink" xml:space="preserve" xmlns:serif="http://www.serif.com/" style="fill-rule:evenodd;clip-rule:evenodd;stroke-linejoin:round;stroke-miterlimit:2;">
    <g transform="matrix(0.801239,0,0,0.801239,11.8639,3.86162)">
        <g>
            <path d="M11.98,100.05L12.27,48.02L6.4,48.02L6.4,114.23C14.47,112.15 22.57,110.82 30.73,110.77C38.26,110.72 45.8,111.77 53.34,114.33C48.65,110.53 43.42,107.74 37.84,105.92C30.81,103.63 23.21,102.87 15.42,103.54C13.66,103.68 12.12,102.37 11.97,100.62C11.96,100.41 11.96,100.23 11.98,100.05ZM58.21,0C73.87,0 86.76,11.92 88.3,27.17C92.54,27.16 98.9,27.38 101.83,27.81C103.42,28.04 104.55,29.41 104.55,30.97L104.55,41.63L113.22,41.63C114.98,41.63 116.41,43.06 116.41,44.82L116.41,118.39C116.41,120.16 114.98,121.59 113.22,121.59C112.86,121.59 112.51,121.53 112.18,121.42C103.27,118.87 94.43,117.18 85.66,117.12C77.12,117.06 68.58,118.57 60,122.35C59.47,122.7 58.84,122.89 58.18,122.89C57.54,122.9 56.9,122.71 56.36,122.35C47.79,118.56 39.25,117.06 30.7,117.12C21.94,117.18 13.1,118.87 4.18,121.42C3.86,121.53 3.51,121.59 3.15,121.59C1.43,121.59 0,120.17 0,118.4L0,44.82C0,43.06 1.43,41.63 3.19,41.63L12.29,41.63L12.35,30.96C12.36,29.42 13.44,28.16 14.89,27.85C17.65,27.27 24.03,26.93 28.15,26.86C29.84,11.75 42.65,0 58.21,0ZM88.28,33.57C86.74,47.65 75.54,58.82 61.45,60.33L61.45,108.23C66.87,104.61 72.41,101.64 78.1,99.61C84.59,97.3 91.26,96.2 98.17,96.75L98.17,45.3C98.15,45.15 98.13,44.98 98.13,44.82C98.13,44.66 98.14,44.5 98.17,44.34L98.17,33.8C96.11,33.6 91.87,33.52 88.28,33.57ZM55.06,60.34C40.81,58.86 29.5,47.49 28.11,33.21C24.63,33.22 20.65,33.37 18.71,33.64L18.35,96.94C25.75,96.68 32.99,97.61 39.8,99.84C45.22,101.61 50.35,104.19 55.06,107.61L55.06,60.34ZM64.55,113.84C71.61,111.62 78.66,110.71 85.7,110.75C93.86,110.8 101.96,112.14 110.03,114.22L110.03,48.02L104.56,48.02L104.56,100.34C104.56,102.11 103.13,103.53 101.37,103.53C101.11,103.53 100.87,103.5 100.63,103.45C93.64,102.35 86.86,103.26 80.25,105.62C74.93,107.52 69.7,110.36 64.55,113.84ZM67.06,48.36L49.36,48.36L49.36,45.38L52.69,45.38L52.69,27.18L49.36,27.18L49.36,24.81L57.63,24.81C59.72,24.81 61.78,24.56 63.81,24.05L63.81,45.38L67.06,45.38L67.06,48.36ZM59.4,10.38C60.77,10.38 61.85,10.78 62.64,11.56C63.42,12.34 63.81,13.42 63.81,14.8C63.81,16.2 63.14,17.45 61.79,18.54C60.44,19.63 58.86,20.18 57.08,20.18C55.73,20.18 54.67,19.8 53.85,19.05C53.03,18.29 52.62,17.3 52.62,16.07C52.62,14.52 53.29,13.19 54.62,12.06C55.94,10.94 57.54,10.38 59.4,10.38Z" style="fill-opacity:0.7;"/>
        </g>
    </g>
</svg>
